# xmcd
#
# Track frame offsets:
#	182
#	12367
#	30975
#	44055
#	57190
#	75092
#	83217
#	99287
#	112972
#	130187
#	143332
#	156150
#	170710
#	187092
#	201580
#	215012
#	228605
#
# Disc length: 3260
#
# Revision: 2
# Processed by: cddbd v1.5.1PL0 Copyright (c) Steve Scherf et al.
# Submitted via: CDex 1.50
# Normalized: r1:TDELIM( - )
#
DISCID=e20cba11
DTITLE=#V - SCHLAGER schlagen SCHLAGER 1/2
DYEAR=1996
DGENRE=Schlager
TTITLE0=Tony Holiday - Tanze Samba mit mir
TTITLE1=Howard Carpendale - Ti amo
TTITLE2=Lena Valaitis - Ob es os oder so oder anders kommt
TTITLE3=Christian Anders - Verliebt in den Lehrer
TTITLE4=Bernhard Brink - Viel zu jung
TTITLE5=Wencke Myhre - Er hat ein knallrotes Gummiboot
TTITLE6=Bernd Clüver - Mexican Girl
TTITLE7=Ireen Sheer - Feuer
TTITLE8=Karel Gott - Babicka
TTITLE9=Peggy March - Einmal verliebt, immer verliebt
TTITLE10=Peter Orloff - Ein Mädchen für immer
TTITLE11=Cindy and Bert - Immer wieder sonntags
TTITLE12=Ulli Martin - Ich träume mit offenen Augen von Dir
TTITLE13=Erik Silvester - Zucker im Kaffee
TTITLE14=Elfi Graf - Mozartstrasse 10
TTITLE15=Bata Illic - Candy Man
TTITLE16=Jürgen Drews - Ein Bett im Kornfeld [Let Your Love Flow]
EXTD=YEAR: 1996
EXTT0=
EXTT1=
EXTT2=
EXTT3=
EXTT4=
EXTT5=
EXTT6=
EXTT7=
EXTT8=
EXTT9=
EXTT10=
EXTT11=
EXTT12=
EXTT13=
EXTT14=
EXTT15=
EXTT16=
PLAYORDER=
